<?xml version="1.0" encoding="utf-8"?>
<!-- Generator: Adobe Illustrator 16.0.0, SVG Export Plug-In . SVG Version: 6.00 Build 0)  -->
<!DOCTYPE svg PUBLIC "-//W3C//DTD SVG 1.1//EN" "http://www.w3.org/Graphics/SVG/1.1/DTD/svg11.dtd">
<svg version="1.1" id="Layer_1" xmlns="http://www.w3.org/2000/svg" xmlns:xlink="http://www.w3.org/1999/xlink" x="0px" y="0px"
	 width="327.391px" height="209.587px" viewBox="16.232 8.286 327.391 209.587"
	 enable-background="new 16.232 8.286 327.391 209.587" xml:space="preserve">

	<polygon fill="none" stroke="#63FF2A" stroke-miterlimit="10" points="342.567,133.722 341.072,132.45 337.99,132.114 
		336.69,130.599 336.084,128.589 336.418,127.595 337.197,126.851 337.894,125.612 338.052,124.119 337.99,122.917 338.278,121.958 
		339.514,121.171 340.373,119.845 340.2,118.389 339.674,116.867 339.546,115.301 341.136,113.403 341.547,112.735 341.803,111.782 
		342.184,108.399 342.026,106.143 342.915,102.56 342.534,100.78 341.899,100.011 339.419,98.057 337.927,95.625 337.165,94.83 
		337.165,94.808 336.784,94.561 336.385,94.483 335.989,94.561 333.892,95.768 332.065,97.858 330.811,100.271 330.761,102.252 
		328.966,102.33 327.568,101.963 326.394,102.188 325.283,104.031 324.949,105.374 324.902,106.255 324.696,107.064 
		323.947,108.141 320.802,109.741 318.928,110.273 317.434,110.218 314.322,109.216 312.686,108.271 309.904,105.616 
		302.152,103.122 300.373,101.75 299.452,100.447 299.324,99.454 299.563,98.319 299.738,95.841 300.042,94.83 300.042,94.212 
		299.768,93.877 299.324,93.918 299.005,93.656 299.133,92.456 285.472,88.145 284.263,87.961 280.484,88.428 279.119,88.073 
		277.639,88.549 273.223,87.81 271.589,87.334 271.507,86.348 272.349,85.216 273.462,84.069 274.146,82.663 274.114,80.4 
		273.51,78.709 272.732,77.175 272.159,75.427 272.349,71.852 273.59,68.278 274.781,66.254 277.116,62.321 279.561,59.344 
		279.848,58.612 280.231,56.739 280.563,55.793 283.359,52.249 284.075,50.63 284.121,46.117 282.055,44.298 279.374,43.067 
		277.228,39.85 276.687,37.332 276.687,37.324 256.861,24.983 254.049,24.328 251.349,24.328 250.364,22.805 246.36,22.805 
		238.323,21.899 236.94,22.438 235.796,23.688 233.158,24.529 230.332,24.798 228.569,24.328 226.471,22.764 225.392,21.695 
		225.392,20.946 226.709,20.637 224.851,18.865 222.484,17.49 220.533,17.404 219.896,19.503 220.482,20.16 216.655,20.217 
		216.528,19.523 216.338,18.707 215.764,17.998 215.462,17.117 215.702,16.419 216.655,14.971 216.861,14.569 216.369,13.477 
		215.668,13.346 214.874,13.51 214.113,13.346 213.588,12.495 213.015,11.256 212.333,10.201 211.38,9.881 210.73,10.574 
		210.363,12.908 209.472,13.496 208.741,12.965 208.489,11.669 208.426,10.278 208.329,9.5 206.98,8.896 205.184,8.794 
		204.041,9.451 204.708,11.145 203.611,11.7 199.719,12.471 198.924,12.45 198.353,12.79 197.37,14.228 197.019,15.012 
		196.478,17.148 195.717,17.872 193.888,18.881 193.175,19.691 193.095,20.487 193.398,21.263 193.588,22.169 193.11,23.338 
		194.255,23.751 194.604,23.807 196.465,25.223 197.958,26.07 199.243,26.013 200.324,25.458 201.309,24.741 202.389,24.205 
		205.915,23.607 206.917,23.774 208.076,24.25 208.727,24.314 208.329,26.847 207.852,26.611 207.805,25.951 207.725,25.784 
		207.426,25.794 207.042,25.942 206.774,26.165 206.614,26.753 206.742,27.236 206.9,27.658 206.93,28.031 206.852,28.756 
		206.885,29.517 206.804,30.31 206.328,31.137 205.36,31.471 204.564,30.485 203.692,29.042 202.579,27.99 200.417,28.216 
		198.209,29.676 197.37,31.502 197.272,32.019 195.048,32.392 190.427,32.361 187.677,31.631 186.98,31.171 186.471,30.136 
		186.088,29.106 185.694,28.644 184.85,28.558 182.976,27.984 181.672,27.984 177.765,28.644 177.4,28.889 177.035,29.414 
		176.559,29.93 175.223,30.327 173.667,31.177 173.063,31.631 172.459,32.337 172.175,32.876 171.841,33.344 171.141,33.822 
		167.883,34.545 158.479,34.545 158.289,34.093 158.147,33.091 157.907,32.092 157.479,31.631 152.826,31.351 151.808,30.827 
		150.474,32.884 149.329,34.267 147.964,35.039 141.958,36.292 140.371,36.077 136.622,34.099 138.511,34.114 139.29,33.377 
		140.242,30.699 138.591,30.877 135,31.957 134.89,32.052 132.332,32.948 130.599,33.918 127.439,36.502 127.614,36.572 
		128.822,37.49 129.059,37.49 129.091,38.556 128.773,39.167 128.203,39.358 127.439,39.198 127.025,39.424 126.93,39.765 
		127.088,40.193 127.597,40.916 127.676,41.178 127.661,41.466 127.566,41.764 127.439,41.94 126.343,42.94 125.407,42.805 
		124.453,42.203 123.341,41.813 122.498,42.058 122.514,42.719 122.864,43.37 123.118,43.634 123.467,44.132 123.594,44.729 
		123.357,45.728 121.926,47.595 119.91,48.407 114.89,48.191 112.982,48.59 110.25,49.781 109.774,49.885 109.202,49.637 
		108.915,49.254 108.709,48.876 108.408,48.634 106.295,47.969 104.724,47.024 104.309,45.292 105.612,42.265 103.658,42.463 
		102.689,42.305 101.75,41.764 100.053,41.408 96.445,42.036 94.587,41.764 93.919,41.259 93.252,41.09 92.618,41.259 
		91.965,41.764 90.615,42.169 90.807,43.364 91.537,44.839 91.902,46.103 91.346,47 90.282,47.921 89.107,48.597 87.216,49.017 
		87.088,51.026 85.246,52.125 84.167,53.519 83.275,55.182 82.91,56.547 91.504,55.696 92.84,55.053 93.919,55.935 95,56.919 
		95.762,58.001 95.19,59.167 94.523,59.598 93.777,59.804 93.031,60.24 91.965,61.67 91.585,61.821 90.933,61.908 89.566,63.306 
		89.09,65.483 89.392,68.119 84.483,71.717 82.386,73.879 81.022,76.148 76.286,80.528 74.11,81.281 74.189,83.094 73.157,83.63 
		72.887,83.815 72.616,84.49 70.806,85.142 70.123,85.809 69.153,87.493 70.026,89.454 68.376,91.837 63.546,95.506 55.762,97.953 
		52.267,99.98 51.186,103.681 51.488,104.643 52.458,106.477 52.68,107.637 52.569,109.097 52.171,110.107 51.663,111.012 
		50.518,114.435 50.424,114.953 50.614,115.547 50.996,116.063 51.535,116.652 51.567,118.422 51.297,119.304 50.489,120.324 
		49.725,120.893 47.31,122.165 45.419,124.308 44.704,124.919 39.526,127.755 29.804,136.651 28.835,137.923 29.058,139.306 
		30.805,141.258 28.249,144.48 25.737,148.803 24.911,149.685 24.625,150.329 24.625,150.862 24.785,151.355 24.958,151.786 
		25.005,152.11 25.005,152.902 25.166,153.618 25.024,154.301 24.196,155.095 28.088,157.495 29.152,158.639 30.026,160.219 
		30.137,161.369 27.803,166.603 27.549,167.414 27.04,170.367 27.008,171.488 27.073,172.458 26.754,173.15 25.166,173.643 
		24.753,173.696 24.308,173.643 23.736,173.458 23.609,173.444 23.481,173.458 23.37,173.501 19.033,175.62 17.285,176.731 
		17,177.988 17.762,179.416 19.033,181.012 18.81,181.91 18.271,182.96 17.301,185.214 19.033,184.182 22.322,183.394 
		25.61,183.266 28.073,184.366 30.408,183.16 34.108,178.843 38.732,175.787 40.606,173.808 40.226,171.401 39.716,171.19 
		38.509,171.744 37.747,171.347 37.445,170.909 36.762,169.186 36.715,168.764 36.046,166.987 35.745,165.951 36.142,164.523 
		37.652,162.457 39.716,159.732 42.068,157.699 44.292,156.976 46.676,156.867 49.027,156.271 55.19,152.047 59.813,151.125 
		64.627,151.281 75.396,154.072 76.492,154.6 77.16,155.643 77.32,157.629 76.794,159.377 74.889,161.607 74.507,162.807 
		75.888,165.198 78.447,167.914 80.099,170.744 77.526,175.721 76.286,179.455 75.62,183.014 76.254,184.761 82.006,186.034 
		83.102,187.106 83.023,187.888 82.514,188.685 81.942,189.4 81.608,189.942 81.815,189.831 81.942,190.861 81.957,191.95 
		81.846,192.047 81.877,192.857 81.735,193.285 81.783,193.611 82.418,194.096 83.102,194.189 83.657,193.77 84.167,193.244 
		84.769,192.992 86.421,193.713 91.314,199.243 91.665,199.473 91.918,200.584 92.745,202.737 93.252,204.628 93.649,205.668 
		94.142,206.511 97.382,210.14 99.067,211.14 101.29,211.592 103.658,211.554 105.834,211.149 110.282,209.315 112.315,208.057 
		113.269,207.734 118.702,208.312 121.02,207.496 125.294,204.374 127.439,203.435 128.963,203.247 129.758,202.212 130.457,201.03 
		131.665,200.412 139.037,202.254 140.163,202.902 141.259,203.911 142.61,205.888 142.722,206.151 143.612,206.462 144.213,206.32 
		144.754,206.057 145.453,205.977 148.949,207.249 150.918,207.211 152.222,207.606 152.633,207.62 153.54,207.13 153.714,206.79 
		153.65,206.248 153.873,205.182 155.557,201.975 157.479,200.631 162.611,199.473 163.292,199.267 163.817,198.837 164.708,197.66 
		164.771,197.432 165.468,195.889 165.598,195.682 165.979,192.729 165.995,191.559 166.137,190.37 166.661,189.298 
		167.376,188.741 168.885,188.583 169.665,188.322 172.824,185.58 174.397,182.212 174.207,178.394 172.047,174.269 
		170.363,172.801 170.109,172.393 170.425,171.519 171.141,170.503 172.554,169.064 174.112,168.353 177.256,167.644 
		178.75,166.603 182.309,161.918 184.342,160.878 185.184,160.242 185.898,159.385 186.343,158.425 186.311,157.375 
		185.835,157.009 185.547,156.563 186.153,155.238 187.695,153.603 189.647,152.537 193.684,151.671 195.762,152.037 
		196.765,153.476 197.049,155.832 197.082,158.987 196.843,161.997 195.668,167.4 195.429,170.083 195.717,172.626 196.51,174.301 
		197.831,175.398 199.719,176.153 201.722,177.159 203.769,179.264 208.329,186.01 209.031,186.365 210.427,186.85 213.792,188.812 
		215.065,188.885 215.589,188.59 216.717,187.596 217.162,187.39 217.75,187.605 218.292,188.583 218.846,188.956 219.992,189.124 
		222.213,189.068 223.294,189.448 225.137,191.871 224.075,194.309 222.008,196.828 220.737,199.735 220.466,200.237 
		220.338,200.519 221.579,200.59 222.69,200.989 226.822,203.205 227.329,203.595 227.79,204.254 228.504,205.898 229.745,208.139 
		230.348,209.487 230.762,210.844 230.886,212.635 230.587,213.922 230.158,215.145 229.886,216.739 232.747,215.865 
		235.113,216.925 237.289,217.328 239.593,214.493 241.405,210.99 241.674,209.226 240.864,207.51 240.166,207.082 238.608,206.762 
		237.895,206.358 237.242,205.388 236.639,203.507 235.862,202.716 235.702,202.452 235.654,202.188 235.702,201.92 
		235.862,201.673 238.242,199.473 236.956,195.865 237.274,194.681 239.117,193.253 240.707,192.754 241.388,192.347 
		241.96,191.379 242.2,190.099 242.04,187.766 242.327,186.422 243.662,184.412 248.902,180.861 249.474,179.791 249.823,178.593 
		250.221,177.558 250.999,176.979 251.874,176.566 252.714,175.787 253.367,174.729 254.446,171.007 256.559,166.589 
		257.005,164.284 256.91,162.943 255.94,159.241 255.924,157.749 256.115,156.428 255.972,155.39 255.003,154.714 254.303,153.307 
		254.876,150.743 256.147,148.223 257.512,146.946 261.038,146.509 262.467,146.89 262.532,148.185 264.376,149.948 
		264.914,150.177 265.709,149.87 266.059,149.241 266.315,148.493 266.79,147.828 267.966,146.969 268.538,146.842 268.76,147.494 
		269.205,157.524 269.093,159.121 269.237,159.7 269.76,160.219 271.349,161.108 271.999,161.635 273.428,165.396 274.35,166.669 
		275.892,167.71 277.56,168.321 285.853,168.416 287.219,167.869 288.317,166.336 288.345,165.516 288.235,164.335 288.377,163.141 
		289.156,162.251 289.953,162.274 291.698,163.334 292.622,163.54 294.131,163.047 298.943,160.575 302.087,160.028 
		303.503,160.139 304.979,160.529 306.79,161.712 307.268,163.412 307.299,165.476 307.775,167.756 308.824,169.193 
		311.684,171.718 312.414,173.501 312.479,175.849 314.859,175.896 317.911,174.738 319.945,173.468 320.881,171.481 
		319.958,169.622 316.972,166.589 316.321,165.423 316.037,164.539 316.067,163.588 316.451,162.174 316.99,161.163 
		318.499,159.798 319.024,159.1 319.564,156.817 319.039,155.66 317.784,155.161 314.544,154.531 312.432,153.706 311.301,152.282 
		312.574,150.121 311.938,149.692 311.588,149.104 311.428,148.35 311.333,147.381 311.652,146.263 311.652,143.968 
		311.764,143.213 312.383,142.282 313.939,140.726 314.544,139.925 315.433,136.51 315.75,135.731 316.451,135.347 323.282,133.379 
		325.139,133.364 326.298,134.301 326.426,135.485 326.043,137.643 326.362,138.78 329.35,139.804 329.904,140.305 330.286,140.839 
		330.747,141.315 331.556,141.694 332.496,141.848 335.003,141.605 340.183,142.967 341.485,142.719 342.5,141.046 343.075,138.448 
		343.122,135.739 	"/>

</svg>
